# xmcd
#
# Track frame offsets: 
#        150
#        11261
#        23746
#        36228
#        47464
#        58733
#        69012
#        80713
#        92032
#        102993
#        115824
#        125154
#        136670
#        148880
#        158621
#        168594
#        178196
#        188722
#        202901
#        213289
#        223487
#        234723
#        246337
#        261825
#        272185
#        284099
#        294482
#        306056
#
# Disc length: 4248 seconds
#
# Revision: 0
# Processed by: cddbd v1.5.2PL0 Copyright (c) Steve Scherf et al.
# Submitted via: ExactAudioCopy v1.3
#
DISCID=a710961c
DTITLE=Lefty Frizzell - CD05_Recordings 1958-61
DYEAR=2018
DGENRE=Country
TTITLE0=If You're Ever Lonely Darling
TTITLE1=Silence
TTITLE2=Release Me
TTITLE3=Our Love's No Bluff
TTITLE4=You're Humbuggin' Me
TTITLE5=She's Gone
TTITLE6=Cigarettes And Coffee Blues
TTITLE7=I Need Your Love
TTITLE8=My Bucket's Got A Hole In It
TTITLE9=I Love You A Thousand Ways
TTITLE10=If You've Got The Money, I've Got The Time
TTITLE11=Mom And Dad's Waltz
TTITLE12=I Want To Be With You Always
TTITLE13=Always Late (With Your Kisses)
TTITLE14=If You're Ever Lonely Darling
TTITLE15=Sin Will Be The Chaser For The Win
TTITLE16=Knock Again, True Love
TTITLE17=The Long Black Veil
TTITLE18=One Has-Been To Another
TTITLE19=Farther Than My Eyes Can See
TTITLE20=My Blues Will Pass
TTITLE21=Ballad Of The Blue And Grey
TTITLE22=That's All I Can Remember
TTITLE23=So What! Let It Rain
TTITLE24=What You Gonna Do, Leroy?
TTITLE25=I Feel Sorry For Me
TTITLE26=Heaven's Plan
TTITLE27=Looking For You
EXTD=
EXTT0=
EXTT1=
EXTT2=
EXTT3=
EXTT4=
EXTT5=
EXTT6=
EXTT7=
EXTT8=
EXTT9=
EXTT10=
EXTT11=
EXTT12=
EXTT13=
EXTT14=
EXTT15=
EXTT16=
EXTT17=
EXTT18=
EXTT19=
EXTT20=
EXTT21=
EXTT22=
EXTT23=
EXTT24=
EXTT25=
EXTT26=
EXTT27=
PLAYORDER=
